<svg xmlns="http://www.w3.org/2000/svg" xmlns:xlink="http://www.w3.org/1999/xlink" contentStyleType="text/css" data-diagram-type="SEQUENCE" height="933px" preserveAspectRatio="none" style="width:1239px;height:933px;background:#FFFFFF;" version="1.1" viewBox="0 0 1239 933" width="1239px" zoomAndPan="magnify"><title>company project flow to analyze data</title><defs/><g><text fill="#000000" font-family="sans-serif" font-size="14" font-weight="bold" lengthAdjust="spacing" textLength="270.7236" x="483.2783" y="28.5352">company project flow to analyze data</text><g><title>user</title><rect fill="#000000" fill-opacity="0.00000" height="733.1426" width="8" x="18.6768" y="118.9766"/><line style="stroke:#181818;stroke-width:0.5;stroke-dasharray:5.0,5.0;" x1="22" x2="22" y1="118.9766" y2="852.1191"/></g><g><title>Car</title><rect fill="#000000" fill-opacity="0.00000" height="733.1426" width="8" x="133.0293" y="118.9766"/><line style="stroke:#181818;stroke-width:0.5;stroke-dasharray:5.0,5.0;" x1="136.4561" x2="136.4561" y1="118.9766" y2="852.1191"/></g><g><title>.dll</title><rect fill="#000000" fill-opacity="0.00000" height="733.1426" width="8" x="179.27" y="118.9766"/><line style="stroke:#181818;stroke-width:0.5;stroke-dasharray:5.0,5.0;" x1="182.6025" x2="182.6025" y1="118.9766" y2="852.1191"/></g><g><title>OmnAIView app (frontend)</title><rect fill="#000000" fill-opacity="0.00000" height="733.1426" width="8" x="304.0044" y="118.9766"/><line style="stroke:#181818;stroke-width:0.5;stroke-dasharray:5.0,5.0;" x1="307.9375" x2="307.9375" y1="118.9766" y2="852.1191"/></g><g><title>NaDI (backend, node interface)</title><rect fill="#000000" fill-opacity="0.00000" height="733.1426" width="8" x="523.0029" y="118.9766"/><line style="stroke:#181818;stroke-width:0.5;stroke-dasharray:5.0,5.0;" x1="526.0713" x2="526.0713" y1="118.9766" y2="852.1191"/></g><g><title>storage node</title><rect fill="#000000" fill-opacity="0.00000" height="733.1426" width="8" x="696.5801" y="118.9766"/><line style="stroke:#181818;stroke-width:0.5;stroke-dasharray:5.0,5.0;" x1="699.9346" x2="699.9346" y1="118.9766" y2="852.1191"/></g><g><title>analysis node</title><rect fill="#000000" fill-opacity="0.00000" height="733.1426" width="8" x="811.3066" y="118.9766"/><line style="stroke:#181818;stroke-width:0.5;stroke-dasharray:5.0,5.0;" x1="815.2256" x2="815.2256" y1="118.9766" y2="852.1191"/></g><g><title>data storage</title><rect fill="#000000" fill-opacity="0.00000" height="733.1426" width="8" x="923.8389" y="118.9766"/><line style="stroke:#181818;stroke-width:0.5;stroke-dasharray:5.0,5.0;" x1="927.3877" x2="927.3877" y1="118.9766" y2="852.1191"/></g><g><title>analysis storage</title><rect fill="#000000" fill-opacity="0.00000" height="733.1426" width="8" x="1044.9023" y="118.9766"/><line style="stroke:#181818;stroke-width:0.5;stroke-dasharray:5.0,5.0;" x1="1048.29" x2="1048.29" y1="118.9766" y2="852.1191"/></g><g><title>training server</title><rect fill="#000000" fill-opacity="0.00000" height="733.1426" width="8" x="1172.8975" y="118.9766"/><line style="stroke:#181818;stroke-width:0.5;stroke-dasharray:5.0,5.0;" x1="1176.5146" x2="1176.5146" y1="118.9766" y2="852.1191"/></g><g class="participant participant-head" data-participant="user"><text fill="#000000" font-family="sans-serif" font-size="14" lengthAdjust="spacing" textLength="29.3535" x="5" y="116.0234">user</text><ellipse cx="22.6768" cy="50.9883" fill="#E2E2F0" rx="8" ry="8" style="stroke:#181818;stroke-width:0.5;"/><path d="M22.6768,58.9883 L22.6768,85.9883 M9.6768,66.9883 L35.6768,66.9883 M22.6768,85.9883 L9.6768,100.9883 M22.6768,85.9883 L35.6768,100.9883" fill="none" style="stroke:#181818;stroke-width:0.5;"/></g><g class="participant participant-tail" data-participant="user"><text fill="#000000" font-family="sans-serif" font-size="14" lengthAdjust="spacing" textLength="29.3535" x="5" y="864.6543">user</text><ellipse cx="22.6768" cy="876.1074" fill="#E2E2F0" rx="8" ry="8" style="stroke:#181818;stroke-width:0.5;"/><path d="M22.6768,884.1074 L22.6768,911.1074 M9.6768,892.1074 L35.6768,892.1074 M22.6768,911.1074 L9.6768,926.1074 M22.6768,911.1074 L35.6768,926.1074" fill="none" style="stroke:#181818;stroke-width:0.5;"/></g><g class="participant participant-head" data-participant="Car"><rect fill="#E2E2F0" height="30.4883" rx="2.5" ry="2.5" style="stroke:#181818;stroke-width:0.5;" width="37.1465" x="118.4561" y="87.4883"/><text fill="#000000" font-family="sans-serif" font-size="14" lengthAdjust="spacing" textLength="23.1465" x="125.4561" y="108.0234">Car</text></g><g class="participant participant-tail" data-participant="Car"><rect fill="#E2E2F0" height="30.4883" rx="2.5" ry="2.5" style="stroke:#181818;stroke-width:0.5;" width="37.1465" x="118.4561" y="851.1191"/><text fill="#000000" font-family="sans-serif" font-size="14" lengthAdjust="spacing" textLength="23.1465" x="125.4561" y="871.6543">Car</text></g><g class="participant participant-head" data-participant=".dll"><rect fill="#E2E2F0" height="30.4883" rx="2.5" ry="2.5" style="stroke:#181818;stroke-width:0.5;" width="35.335" x="165.6025" y="87.4883"/><text fill="#000000" font-family="sans-serif" font-size="14" lengthAdjust="spacing" textLength="21.335" x="172.6025" y="108.0234">.dll</text></g><g class="participant participant-tail" data-participant=".dll"><rect fill="#E2E2F0" height="30.4883" rx="2.5" ry="2.5" style="stroke:#181818;stroke-width:0.5;" width="35.335" x="165.6025" y="851.1191"/><text fill="#000000" font-family="sans-serif" font-size="14" lengthAdjust="spacing" textLength="21.335" x="172.6025" y="871.6543">.dll</text></g><g class="participant participant-head" data-participant="OmnAIView"><rect fill="#E2E2F0" height="30.4883" rx="2.5" ry="2.5" style="stroke:#181818;stroke-width:0.5;" width="194.1338" x="210.9375" y="87.4883"/><text fill="#000000" font-family="sans-serif" font-size="14" lengthAdjust="spacing" textLength="180.1338" x="217.9375" y="108.0234">OmnAIView app (frontend)</text></g><g class="participant participant-tail" data-participant="OmnAIView"><rect fill="#E2E2F0" height="30.4883" rx="2.5" ry="2.5" style="stroke:#181818;stroke-width:0.5;" width="194.1338" x="210.9375" y="851.1191"/><text fill="#000000" font-family="sans-serif" font-size="14" lengthAdjust="spacing" textLength="180.1338" x="217.9375" y="871.6543">OmnAIView app (frontend)</text></g><g class="participant participant-head" data-participant="NaDI"><rect fill="#E2E2F0" height="30.4883" rx="2.5" ry="2.5" style="stroke:#181818;stroke-width:0.5;" width="223.8633" x="415.0713" y="87.4883"/><text fill="#000000" font-family="sans-serif" font-size="14" lengthAdjust="spacing" textLength="209.8633" x="422.0713" y="108.0234">NaDI (backend, node interface)</text></g><g class="participant participant-tail" data-participant="NaDI"><rect fill="#E2E2F0" height="30.4883" rx="2.5" ry="2.5" style="stroke:#181818;stroke-width:0.5;" width="223.8633" x="415.0713" y="851.1191"/><text fill="#000000" font-family="sans-serif" font-size="14" lengthAdjust="spacing" textLength="209.8633" x="422.0713" y="871.6543">NaDI (backend, node interface)</text></g><g class="participant participant-head" data-participant="StorageNode"><rect fill="#E2E2F0" height="30.4883" rx="2.5" ry="2.5" style="stroke:#181818;stroke-width:0.5;" width="103.291" x="648.9346" y="87.4883"/><text fill="#000000" font-family="sans-serif" font-size="14" lengthAdjust="spacing" textLength="89.291" x="655.9346" y="108.0234">storage node</text></g><g class="participant participant-tail" data-participant="StorageNode"><rect fill="#E2E2F0" height="30.4883" rx="2.5" ry="2.5" style="stroke:#181818;stroke-width:0.5;" width="103.291" x="648.9346" y="851.1191"/><text fill="#000000" font-family="sans-serif" font-size="14" lengthAdjust="spacing" textLength="89.291" x="655.9346" y="871.6543">storage node</text></g><g class="participant participant-head" data-participant="AnalysisNode"><rect fill="#E2E2F0" height="30.4883" rx="2.5" ry="2.5" style="stroke:#181818;stroke-width:0.5;" width="106.1621" x="762.2256" y="87.4883"/><text fill="#000000" font-family="sans-serif" font-size="14" lengthAdjust="spacing" textLength="92.1621" x="769.2256" y="108.0234">analysis node</text></g><g class="participant participant-tail" data-participant="AnalysisNode"><rect fill="#E2E2F0" height="30.4883" rx="2.5" ry="2.5" style="stroke:#181818;stroke-width:0.5;" width="106.1621" x="762.2256" y="851.1191"/><text fill="#000000" font-family="sans-serif" font-size="14" lengthAdjust="spacing" textLength="92.1621" x="769.2256" y="871.6543">analysis node</text></g><g class="participant participant-head" data-participant="DataStorage"><rect fill="#E2E2F0" height="30.4883" rx="2.5" ry="2.5" style="stroke:#181818;stroke-width:0.5;" width="98.9023" x="878.3877" y="87.4883"/><text fill="#000000" font-family="sans-serif" font-size="14" lengthAdjust="spacing" textLength="84.9023" x="885.3877" y="108.0234">data storage</text></g><g class="participant participant-tail" data-participant="DataStorage"><rect fill="#E2E2F0" height="30.4883" rx="2.5" ry="2.5" style="stroke:#181818;stroke-width:0.5;" width="98.9023" x="878.3877" y="851.1191"/><text fill="#000000" font-family="sans-serif" font-size="14" lengthAdjust="spacing" textLength="84.9023" x="885.3877" y="871.6543">data storage</text></g><g class="participant participant-head" data-participant="AnalysisStorage"><rect fill="#E2E2F0" height="30.4883" rx="2.5" ry="2.5" style="stroke:#181818;stroke-width:0.5;" width="123.2246" x="987.29" y="87.4883"/><text fill="#000000" font-family="sans-serif" font-size="14" lengthAdjust="spacing" textLength="109.2246" x="994.29" y="108.0234">analysis storage</text></g><g class="participant participant-tail" data-participant="AnalysisStorage"><rect fill="#E2E2F0" height="30.4883" rx="2.5" ry="2.5" style="stroke:#181818;stroke-width:0.5;" width="123.2246" x="987.29" y="851.1191"/><text fill="#000000" font-family="sans-serif" font-size="14" lengthAdjust="spacing" textLength="109.2246" x="994.29" y="871.6543">analysis storage</text></g><g class="participant participant-head" data-participant="TrainingServer"><rect fill="#E2E2F0" height="30.4883" rx="2.5" ry="2.5" style="stroke:#181818;stroke-width:0.5;" width="112.7656" x="1120.5146" y="87.4883"/><text fill="#000000" font-family="sans-serif" font-size="14" lengthAdjust="spacing" textLength="98.7656" x="1127.5146" y="108.0234">training server</text></g><g class="participant participant-tail" data-participant="TrainingServer"><rect fill="#E2E2F0" height="30.4883" rx="2.5" ry="2.5" style="stroke:#181818;stroke-width:0.5;" width="112.7656" x="1120.5146" y="851.1191"/><text fill="#000000" font-family="sans-serif" font-size="14" lengthAdjust="spacing" textLength="98.7656" x="1127.5146" y="871.6543">training server</text></g><g class="message" data-participant-1="user" data-participant-2="Car"><polygon fill="#181818" points="125.0293,146.2871,135.0293,150.2871,125.0293,154.2871,129.0293,150.2871" style="stroke:#181818;stroke-width:1;"/><line style="stroke:#181818;stroke-width:1;" x1="22.6768" x2="131.0293" y1="150.2871" y2="150.2871"/><text fill="#000000" font-family="sans-serif" font-size="13" lengthAdjust="spacing" textLength="90.3525" x="29.6768" y="145.5449">connect scope</text></g><g class="message" data-participant-1="user" data-participant-2="OmnAIView"><polygon fill="#181818" points="296.0044,175.5977,306.0044,179.5977,296.0044,183.5977,300.0044,179.5977" style="stroke:#181818;stroke-width:1;"/><line style="stroke:#181818;stroke-width:1;" x1="22.6768" x2="302.0044" y1="179.5977" y2="179.5977"/><text fill="#000000" font-family="sans-serif" font-size="13" lengthAdjust="spacing" textLength="96.2305" x="29.6768" y="174.8555">opens software</text></g><g class="message" data-participant-1="OmnAIView" data-participant-2="NaDI"><polygon fill="#181818" points="515.0029,204.9082,525.0029,208.9082,515.0029,212.9082,519.0029,208.9082" style="stroke:#181818;stroke-width:1;"/><line style="stroke:#181818;stroke-width:1;" x1="308.0044" x2="521.0029" y1="208.9082" y2="208.9082"/><text fill="#000000" font-family="sans-serif" font-size="13" lengthAdjust="spacing" textLength="63.229" x="315.0044" y="204.166">start NaDI</text></g><g class="message" data-participant-1="user" data-participant-2="OmnAIView"><polygon fill="#181818" points="296.0044,234.2188,306.0044,238.2188,296.0044,242.2188,300.0044,238.2188" style="stroke:#181818;stroke-width:1;"/><line style="stroke:#181818;stroke-width:1;" x1="22.6768" x2="302.0044" y1="238.2188" y2="238.2188"/><text fill="#000000" font-family="sans-serif" font-size="13" lengthAdjust="spacing" textLength="125.7153" x="29.6768" y="233.4766">starts measurement</text></g><g class="message" data-participant-1="OmnAIView" data-participant-2="NaDI"><polygon fill="#181818" points="515.0029,263.5293,525.0029,267.5293,515.0029,271.5293,519.0029,267.5293" style="stroke:#181818;stroke-width:1;"/><line style="stroke:#181818;stroke-width:1;" x1="308.0044" x2="521.0029" y1="267.5293" y2="267.5293"/><text fill="#000000" font-family="sans-serif" font-size="13" lengthAdjust="spacing" textLength="121.4814" x="315.0044" y="262.7871">API request to start</text></g><g class="message" data-participant-1="NaDI" data-participant-2="NaDI"><line style="stroke:#181818;stroke-width:1;" x1="527.0029" x2="569.0029" y1="296.8398" y2="296.8398"/><line style="stroke:#181818;stroke-width:1;" x1="569.0029" x2="569.0029" y1="296.8398" y2="309.8398"/><line style="stroke:#181818;stroke-width:1;" x1="528.0029" x2="569.0029" y1="309.8398" y2="309.8398"/><polygon fill="#181818" points="538.0029,305.8398,528.0029,309.8398,538.0029,313.8398,534.0029,309.8398" style="stroke:#181818;stroke-width:1;"/><text fill="#000000" font-family="sans-serif" font-size="13" lengthAdjust="spacing" textLength="105.5107" x="534.0029" y="292.0977">search for nodes</text></g><g class="message" data-participant-1="NaDI" data-participant-2="OmnAIView"><polygon fill="#181818" points="319.0044,335.1504,309.0044,339.1504,319.0044,343.1504,315.0044,339.1504" style="stroke:#181818;stroke-width:1;"/><line style="stroke:#181818;stroke-width:1;" x1="313.0044" x2="526.0029" y1="339.1504" y2="339.1504"/><text fill="#000000" font-family="sans-serif" font-size="13" lengthAdjust="spacing" textLength="148.6938" x="325.0044" y="334.4082">provide available nodes</text></g><g class="message" data-participant-1="user" data-participant-2="OmnAIView"><polygon fill="#181818" points="296.0044,364.4609,306.0044,368.4609,296.0044,372.4609,300.0044,368.4609" style="stroke:#181818;stroke-width:1;"/><line style="stroke:#181818;stroke-width:1;" x1="22.6768" x2="302.0044" y1="368.4609" y2="368.4609"/><text fill="#000000" font-family="sans-serif" font-size="13" lengthAdjust="spacing" textLength="127.2197" x="29.6768" y="363.7188">selects OmnAIScope</text></g><g class="message" data-participant-1="OmnAIView" data-participant-2="NaDI"><polygon fill="#181818" points="515.0029,393.7715,525.0029,397.7715,515.0029,401.7715,519.0029,397.7715" style="stroke:#181818;stroke-width:1;"/><line style="stroke:#181818;stroke-width:1;" x1="308.0044" x2="521.0029" y1="397.7715" y2="397.7715"/><text fill="#000000" font-family="sans-serif" font-size="13" lengthAdjust="spacing" textLength="103.4858" x="315.0044" y="393.0293">open WebSocket</text></g><g class="message" data-participant-1="NaDI" data-participant-2="OmnAIView"><polygon fill="#181818" points="319.0044,423.082,309.0044,427.082,319.0044,431.082,315.0044,427.082" style="stroke:#181818;stroke-width:1;"/><line style="stroke:#181818;stroke-width:1;" x1="313.0044" x2="526.0029" y1="427.082" y2="427.082"/><text fill="#000000" font-family="sans-serif" font-size="13" lengthAdjust="spacing" textLength="99.6328" x="325.0044" y="422.3398">send scope info</text></g><g class="message" data-participant-1="user" data-participant-2="OmnAIView"><polygon fill="#181818" points="296.0044,452.3926,306.0044,456.3926,296.0044,460.3926,300.0044,456.3926" style="stroke:#181818;stroke-width:1;"/><line style="stroke:#181818;stroke-width:1;" x1="22.6768" x2="302.0044" y1="456.3926" y2="456.3926"/><text fill="#000000" font-family="sans-serif" font-size="13" lengthAdjust="spacing" textLength="198.3389" x="29.6768" y="451.6504">confirms &amp; starts measurement</text></g><g class="message" data-participant-1="OmnAIView" data-participant-2="NaDI"><polygon fill="#181818" points="515.0029,481.7031,525.0029,485.7031,515.0029,489.7031,519.0029,485.7031" style="stroke:#181818;stroke-width:1;"/><line style="stroke:#181818;stroke-width:1;" x1="308.0044" x2="521.0029" y1="485.7031" y2="485.7031"/><text fill="#000000" font-family="sans-serif" font-size="13" lengthAdjust="spacing" textLength="150.1982" x="315.0044" y="480.9609">send user configuration</text></g><g class="message" data-participant-1="NaDI" data-participant-2=".dll"><polygon fill="#181818" points="194.27,511.0137,184.27,515.0137,194.27,519.0137,190.27,515.0137" style="stroke:#181818;stroke-width:1;"/><line style="stroke:#181818;stroke-width:1;" x1="188.27" x2="526.0029" y1="515.0137" y2="515.0137"/><text fill="#000000" font-family="sans-serif" font-size="13" lengthAdjust="spacing" textLength="96.9795" x="200.27" y="510.2715">connect scopes</text></g><g class="message" data-participant-1="NaDI" data-participant-2="NaDI"><line style="stroke:#181818;stroke-width:1;" x1="527.0029" x2="569.0029" y1="544.3242" y2="544.3242"/><line style="stroke:#181818;stroke-width:1;" x1="569.0029" x2="569.0029" y1="544.3242" y2="557.3242"/><line style="stroke:#181818;stroke-width:1;" x1="528.0029" x2="569.0029" y1="557.3242" y2="557.3242"/><polygon fill="#181818" points="538.0029,553.3242,528.0029,557.3242,538.0029,561.3242,534.0029,557.3242" style="stroke:#181818;stroke-width:1;"/><text fill="#000000" font-family="sans-serif" font-size="13" lengthAdjust="spacing" textLength="80.1582" x="534.0029" y="539.582">process data</text></g><g class="message" data-participant-1="NaDI" data-participant-2="OmnAIView"><polygon fill="#181818" points="319.0044,582.6348,309.0044,586.6348,319.0044,590.6348,315.0044,586.6348" style="stroke:#181818;stroke-width:1;"/><line style="stroke:#181818;stroke-width:1;" x1="313.0044" x2="526.0029" y1="586.6348" y2="586.6348"/><text fill="#000000" font-family="sans-serif" font-size="13" lengthAdjust="spacing" textLength="129.8159" x="325.0044" y="581.8926">send processed data</text></g><g class="message" data-participant-1="OmnAIView" data-participant-2="user"><polygon fill="#181818" points="33.6768,611.9453,23.6768,615.9453,33.6768,619.9453,29.6768,615.9453" style="stroke:#181818;stroke-width:1;"/><line style="stroke:#181818;stroke-width:1;" x1="27.6768" x2="307.0044" y1="615.9453" y2="615.9453"/><text fill="#000000" font-family="sans-serif" font-size="13" lengthAdjust="spacing" textLength="95.5386" x="39.6768" y="611.2031">visualize graph</text></g><g class="message" data-participant-1="user" data-participant-2="OmnAIView"><polygon fill="#181818" points="296.0044,641.2559,306.0044,645.2559,296.0044,649.2559,300.0044,645.2559" style="stroke:#181818;stroke-width:1;"/><line style="stroke:#181818;stroke-width:1;" x1="22.6768" x2="302.0044" y1="645.2559" y2="645.2559"/><text fill="#000000" font-family="sans-serif" font-size="13" lengthAdjust="spacing" textLength="101.645" x="29.6768" y="640.5137">request analysis</text></g><g class="message" data-participant-1="OmnAIView" data-participant-2="NaDI"><polygon fill="#181818" points="515.0029,670.5664,525.0029,674.5664,515.0029,678.5664,519.0029,674.5664" style="stroke:#181818;stroke-width:1;"/><line style="stroke:#181818;stroke-width:1;" x1="308.0044" x2="521.0029" y1="674.5664" y2="674.5664"/><text fill="#000000" font-family="sans-serif" font-size="13" lengthAdjust="spacing" textLength="159.4341" x="315.0044" y="669.8242">request analysis for node</text></g><g class="message" data-participant-1="NaDI" data-participant-2="AnalysisNode"><polygon fill="#181818" points="803.3066,699.877,813.3066,703.877,803.3066,707.877,807.3066,703.877" style="stroke:#181818;stroke-width:1;"/><line style="stroke:#181818;stroke-width:1;" x1="527.0029" x2="809.3066" y1="703.877" y2="703.877"/><text fill="#000000" font-family="sans-serif" font-size="13" lengthAdjust="spacing" textLength="137.9346" x="534.0029" y="699.1348">send data for analysis</text></g><g class="message" data-participant-1="AnalysisNode" data-participant-2="AnalysisNode"><line style="stroke:#181818;stroke-width:1;" x1="815.3066" x2="857.3066" y1="733.1875" y2="733.1875"/><line style="stroke:#181818;stroke-width:1;" x1="857.3066" x2="857.3066" y1="733.1875" y2="746.1875"/><line style="stroke:#181818;stroke-width:1;" x1="816.3066" x2="857.3066" y1="746.1875" y2="746.1875"/><polygon fill="#181818" points="826.3066,742.1875,816.3066,746.1875,826.3066,750.1875,822.3066,746.1875" style="stroke:#181818;stroke-width:1;"/><text fill="#000000" font-family="sans-serif" font-size="13" lengthAdjust="spacing" textLength="79.187" x="822.3066" y="728.4453">analyze data</text></g><g class="message" data-participant-1="AnalysisNode" data-participant-2="NaDI"><polygon fill="#181818" points="538.0029,771.498,528.0029,775.498,538.0029,779.498,534.0029,775.498" style="stroke:#181818;stroke-width:1;"/><line style="stroke:#181818;stroke-width:1;" x1="532.0029" x2="814.3066" y1="775.498" y2="775.498"/><text fill="#000000" font-family="sans-serif" font-size="13" lengthAdjust="spacing" textLength="85.4966" x="544.0029" y="770.7559">return results</text></g><g class="message" data-participant-1="NaDI" data-participant-2="OmnAIView"><polygon fill="#181818" points="319.0044,800.8086,309.0044,804.8086,319.0044,808.8086,315.0044,804.8086" style="stroke:#181818;stroke-width:1;"/><line style="stroke:#181818;stroke-width:1;" x1="313.0044" x2="526.0029" y1="804.8086" y2="804.8086"/><text fill="#000000" font-family="sans-serif" font-size="13" lengthAdjust="spacing" textLength="76.7368" x="325.0044" y="800.0664">send results</text></g><g class="message" data-participant-1="OmnAIView" data-participant-2="user"><polygon fill="#181818" points="33.6768,830.1191,23.6768,834.1191,33.6768,838.1191,29.6768,834.1191" style="stroke:#181818;stroke-width:1;"/><line style="stroke:#181818;stroke-width:1;" x1="27.6768" x2="307.0044" y1="834.1191" y2="834.1191"/><text fill="#000000" font-family="sans-serif" font-size="13" lengthAdjust="spacing" textLength="79.314" x="39.6768" y="829.377">show results</text></g><!--SRC=[ZLHDRzim3BtxLn0v31smxGVaK21OBxbq0pAiPqQc4ssov8bqWlRNbv8_4gSAi9CXyZtgyP6oM7449hGT-bVeOlX3Hg1nuGmI03swrpU26WMh2es423rJh3gCOerLai1tN9vNtshdLilGZzPljhyjdG6x3XwQ6BoGhp-l01dcv9BpZ4zRUDYZ-Ql8B-13JM2L5XiqD30JP4bYbOW7okWCsGs1PpqlaRatjdo1RiR8Hspg7yRI6VgaWR7odQhNwAbmaI4HhRV-0EhhYM8c_1fZknoggkGvV7rCLiDQf-LzcXARqD6SkrYy1erxbH0QEMEawf9INBPrhVfKn61WgK9ECxI4t4TgoKknokRd5YBzwuabxKjcLJbtTHDXD4TeT7UIrJpdh-_JpJjP7J2Uq3hSEngnHMtajFrnRtRPX9AsP0Ayq7uNT8EaU2lhPWqswcOreNYRkjtOs39y-bzJSjLSAdCFVKInmSyAXWToEqY-zKqjCSGyFBwxwaSKrGDkeIThMCF9Se_EwZi-HEoELR7DQOhJ0XSxkmNDGvtrNR-XIM9-FGavrrwWFh8MlvrRx2n5-kZrmxqJlk_F12WPmqVzpKs0Tm00]--></g></svg>