<svg xmlns="http://www.w3.org/2000/svg" xmlns:xlink="http://www.w3.org/1999/xlink" contentStyleType="text/css" data-diagram-type="SEQUENCE" height="991px" preserveAspectRatio="none" style="width:1267px;height:991px;background:#FFFFFF;" version="1.1" viewBox="0 0 1267 991" width="1267px" zoomAndPan="magnify"><title>company project flow to generate training data</title><defs/><g><text fill="#000000" font-family="sans-serif" font-size="14" font-weight="bold" lengthAdjust="spacing" textLength="340.7988" x="462.863" y="28.5352">company project flow to generate training data</text><g><title>user</title><rect fill="#000000" fill-opacity="0.00000" height="791.7637" width="8" x="18.6768" y="118.9766"/><line style="stroke:#181818;stroke-width:0.5;stroke-dasharray:5.0,5.0;" x1="22" x2="22" y1="118.9766" y2="910.7402"/></g><g><title>Car</title><rect fill="#000000" fill-opacity="0.00000" height="791.7637" width="8" x="133.0293" y="118.9766"/><line style="stroke:#181818;stroke-width:0.5;stroke-dasharray:5.0,5.0;" x1="136.4561" x2="136.4561" y1="118.9766" y2="910.7402"/></g><g><title>.dll</title><rect fill="#000000" fill-opacity="0.00000" height="791.7637" width="8" x="179.27" y="118.9766"/><line style="stroke:#181818;stroke-width:0.5;stroke-dasharray:5.0,5.0;" x1="182.6025" x2="182.6025" y1="118.9766" y2="910.7402"/></g><g><title>OmnAIView app (frontend)</title><rect fill="#000000" fill-opacity="0.00000" height="791.7637" width="8" x="304.0044" y="118.9766"/><line style="stroke:#181818;stroke-width:0.5;stroke-dasharray:5.0,5.0;" x1="307.9375" x2="307.9375" y1="118.9766" y2="910.7402"/></g><g><title>NaDI (backend, node interface)</title><rect fill="#000000" fill-opacity="0.00000" height="791.7637" width="8" x="523.0029" y="118.9766"/><line style="stroke:#181818;stroke-width:0.5;stroke-dasharray:5.0,5.0;" x1="526.0713" x2="526.0713" y1="118.9766" y2="910.7402"/></g><g><title>storage node</title><rect fill="#000000" fill-opacity="0.00000" height="791.7637" width="8" x="696.5801" y="118.9766"/><line style="stroke:#181818;stroke-width:0.5;stroke-dasharray:5.0,5.0;" x1="699.9346" x2="699.9346" y1="118.9766" y2="910.7402"/></g><g><title>analysis node</title><rect fill="#000000" fill-opacity="0.00000" height="791.7637" width="8" x="811.3066" y="118.9766"/><line style="stroke:#181818;stroke-width:0.5;stroke-dasharray:5.0,5.0;" x1="815.2256" x2="815.2256" y1="118.9766" y2="910.7402"/></g><g><title>data storage</title><rect fill="#000000" fill-opacity="0.00000" height="791.7637" width="8" x="923.8389" y="118.9766"/><line style="stroke:#181818;stroke-width:0.5;stroke-dasharray:5.0,5.0;" x1="927.3877" x2="927.3877" y1="118.9766" y2="910.7402"/></g><g><title>analysis storage</title><rect fill="#000000" fill-opacity="0.00000" height="791.7637" width="8" x="1044.9023" y="118.9766"/><line style="stroke:#181818;stroke-width:0.5;stroke-dasharray:5.0,5.0;" x1="1048.29" x2="1048.29" y1="118.9766" y2="910.7402"/></g><g><title>training server</title><rect fill="#000000" fill-opacity="0.00000" height="791.7637" width="8" x="1176.9204" y="118.9766"/><line style="stroke:#181818;stroke-width:0.5;stroke-dasharray:5.0,5.0;" x1="1180.5376" x2="1180.5376" y1="118.9766" y2="910.7402"/></g><g class="participant participant-head" data-participant="user"><text fill="#000000" font-family="sans-serif" font-size="14" lengthAdjust="spacing" textLength="29.3535" x="5" y="116.0234">user</text><ellipse cx="22.6768" cy="50.9883" fill="#E2E2F0" rx="8" ry="8" style="stroke:#181818;stroke-width:0.5;"/><path d="M22.6768,58.9883 L22.6768,85.9883 M9.6768,66.9883 L35.6768,66.9883 M22.6768,85.9883 L9.6768,100.9883 M22.6768,85.9883 L35.6768,100.9883" fill="none" style="stroke:#181818;stroke-width:0.5;"/></g><g class="participant participant-tail" data-participant="user"><text fill="#000000" font-family="sans-serif" font-size="14" lengthAdjust="spacing" textLength="29.3535" x="5" y="923.2754">user</text><ellipse cx="22.6768" cy="934.7285" fill="#E2E2F0" rx="8" ry="8" style="stroke:#181818;stroke-width:0.5;"/><path d="M22.6768,942.7285 L22.6768,969.7285 M9.6768,950.7285 L35.6768,950.7285 M22.6768,969.7285 L9.6768,984.7285 M22.6768,969.7285 L35.6768,984.7285" fill="none" style="stroke:#181818;stroke-width:0.5;"/></g><g class="participant participant-head" data-participant="Car"><rect fill="#E2E2F0" height="30.4883" rx="2.5" ry="2.5" style="stroke:#181818;stroke-width:0.5;" width="37.1465" x="118.4561" y="87.4883"/><text fill="#000000" font-family="sans-serif" font-size="14" lengthAdjust="spacing" textLength="23.1465" x="125.4561" y="108.0234">Car</text></g><g class="participant participant-tail" data-participant="Car"><rect fill="#E2E2F0" height="30.4883" rx="2.5" ry="2.5" style="stroke:#181818;stroke-width:0.5;" width="37.1465" x="118.4561" y="909.7402"/><text fill="#000000" font-family="sans-serif" font-size="14" lengthAdjust="spacing" textLength="23.1465" x="125.4561" y="930.2754">Car</text></g><g class="participant participant-head" data-participant=".dll"><rect fill="#E2E2F0" height="30.4883" rx="2.5" ry="2.5" style="stroke:#181818;stroke-width:0.5;" width="35.335" x="165.6025" y="87.4883"/><text fill="#000000" font-family="sans-serif" font-size="14" lengthAdjust="spacing" textLength="21.335" x="172.6025" y="108.0234">.dll</text></g><g class="participant participant-tail" data-participant=".dll"><rect fill="#E2E2F0" height="30.4883" rx="2.5" ry="2.5" style="stroke:#181818;stroke-width:0.5;" width="35.335" x="165.6025" y="909.7402"/><text fill="#000000" font-family="sans-serif" font-size="14" lengthAdjust="spacing" textLength="21.335" x="172.6025" y="930.2754">.dll</text></g><g class="participant participant-head" data-participant="OmnAIView"><rect fill="#E2E2F0" height="30.4883" rx="2.5" ry="2.5" style="stroke:#181818;stroke-width:0.5;" width="194.1338" x="210.9375" y="87.4883"/><text fill="#000000" font-family="sans-serif" font-size="14" lengthAdjust="spacing" textLength="180.1338" x="217.9375" y="108.0234">OmnAIView app (frontend)</text></g><g class="participant participant-tail" data-participant="OmnAIView"><rect fill="#E2E2F0" height="30.4883" rx="2.5" ry="2.5" style="stroke:#181818;stroke-width:0.5;" width="194.1338" x="210.9375" y="909.7402"/><text fill="#000000" font-family="sans-serif" font-size="14" lengthAdjust="spacing" textLength="180.1338" x="217.9375" y="930.2754">OmnAIView app (frontend)</text></g><g class="participant participant-head" data-participant="NaDI"><rect fill="#E2E2F0" height="30.4883" rx="2.5" ry="2.5" style="stroke:#181818;stroke-width:0.5;" width="223.8633" x="415.0713" y="87.4883"/><text fill="#000000" font-family="sans-serif" font-size="14" lengthAdjust="spacing" textLength="209.8633" x="422.0713" y="108.0234">NaDI (backend, node interface)</text></g><g class="participant participant-tail" data-participant="NaDI"><rect fill="#E2E2F0" height="30.4883" rx="2.5" ry="2.5" style="stroke:#181818;stroke-width:0.5;" width="223.8633" x="415.0713" y="909.7402"/><text fill="#000000" font-family="sans-serif" font-size="14" lengthAdjust="spacing" textLength="209.8633" x="422.0713" y="930.2754">NaDI (backend, node interface)</text></g><g class="participant participant-head" data-participant="StorageNode"><rect fill="#E2E2F0" height="30.4883" rx="2.5" ry="2.5" style="stroke:#181818;stroke-width:0.5;" width="103.291" x="648.9346" y="87.4883"/><text fill="#000000" font-family="sans-serif" font-size="14" lengthAdjust="spacing" textLength="89.291" x="655.9346" y="108.0234">storage node</text></g><g class="participant participant-tail" data-participant="StorageNode"><rect fill="#E2E2F0" height="30.4883" rx="2.5" ry="2.5" style="stroke:#181818;stroke-width:0.5;" width="103.291" x="648.9346" y="909.7402"/><text fill="#000000" font-family="sans-serif" font-size="14" lengthAdjust="spacing" textLength="89.291" x="655.9346" y="930.2754">storage node</text></g><g class="participant participant-head" data-participant="AnalysisNode"><rect fill="#E2E2F0" height="30.4883" rx="2.5" ry="2.5" style="stroke:#181818;stroke-width:0.5;" width="106.1621" x="762.2256" y="87.4883"/><text fill="#000000" font-family="sans-serif" font-size="14" lengthAdjust="spacing" textLength="92.1621" x="769.2256" y="108.0234">analysis node</text></g><g class="participant participant-tail" data-participant="AnalysisNode"><rect fill="#E2E2F0" height="30.4883" rx="2.5" ry="2.5" style="stroke:#181818;stroke-width:0.5;" width="106.1621" x="762.2256" y="909.7402"/><text fill="#000000" font-family="sans-serif" font-size="14" lengthAdjust="spacing" textLength="92.1621" x="769.2256" y="930.2754">analysis node</text></g><g class="participant participant-head" data-participant="DataStorage"><rect fill="#E2E2F0" height="30.4883" rx="2.5" ry="2.5" style="stroke:#181818;stroke-width:0.5;" width="98.9023" x="878.3877" y="87.4883"/><text fill="#000000" font-family="sans-serif" font-size="14" lengthAdjust="spacing" textLength="84.9023" x="885.3877" y="108.0234">data storage</text></g><g class="participant participant-tail" data-participant="DataStorage"><rect fill="#E2E2F0" height="30.4883" rx="2.5" ry="2.5" style="stroke:#181818;stroke-width:0.5;" width="98.9023" x="878.3877" y="909.7402"/><text fill="#000000" font-family="sans-serif" font-size="14" lengthAdjust="spacing" textLength="84.9023" x="885.3877" y="930.2754">data storage</text></g><g class="participant participant-head" data-participant="AnalysisStorage"><rect fill="#E2E2F0" height="30.4883" rx="2.5" ry="2.5" style="stroke:#181818;stroke-width:0.5;" width="123.2246" x="987.29" y="87.4883"/><text fill="#000000" font-family="sans-serif" font-size="14" lengthAdjust="spacing" textLength="109.2246" x="994.29" y="108.0234">analysis storage</text></g><g class="participant participant-tail" data-participant="AnalysisStorage"><rect fill="#E2E2F0" height="30.4883" rx="2.5" ry="2.5" style="stroke:#181818;stroke-width:0.5;" width="123.2246" x="987.29" y="909.7402"/><text fill="#000000" font-family="sans-serif" font-size="14" lengthAdjust="spacing" textLength="109.2246" x="994.29" y="930.2754">analysis storage</text></g><g class="participant participant-head" data-participant="TrainingServer"><rect fill="#E2E2F0" height="30.4883" rx="2.5" ry="2.5" style="stroke:#181818;stroke-width:0.5;" width="112.7656" x="1124.5376" y="87.4883"/><text fill="#000000" font-family="sans-serif" font-size="14" lengthAdjust="spacing" textLength="98.7656" x="1131.5376" y="108.0234">training server</text></g><g class="participant participant-tail" data-participant="TrainingServer"><rect fill="#E2E2F0" height="30.4883" rx="2.5" ry="2.5" style="stroke:#181818;stroke-width:0.5;" width="112.7656" x="1124.5376" y="909.7402"/><text fill="#000000" font-family="sans-serif" font-size="14" lengthAdjust="spacing" textLength="98.7656" x="1131.5376" y="930.2754">training server</text></g><g class="message" data-participant-1="user" data-participant-2="Car"><polygon fill="#181818" points="125.0293,146.2871,135.0293,150.2871,125.0293,154.2871,129.0293,150.2871" style="stroke:#181818;stroke-width:1;"/><line style="stroke:#181818;stroke-width:1;" x1="22.6768" x2="131.0293" y1="150.2871" y2="150.2871"/><text fill="#000000" font-family="sans-serif" font-size="13" lengthAdjust="spacing" textLength="90.3525" x="29.6768" y="145.5449">connect scope</text></g><g class="message" data-participant-1="user" data-participant-2="OmnAIView"><polygon fill="#181818" points="296.0044,175.5977,306.0044,179.5977,296.0044,183.5977,300.0044,179.5977" style="stroke:#181818;stroke-width:1;"/><line style="stroke:#181818;stroke-width:1;" x1="22.6768" x2="302.0044" y1="179.5977" y2="179.5977"/><text fill="#000000" font-family="sans-serif" font-size="13" lengthAdjust="spacing" textLength="96.2305" x="29.6768" y="174.8555">opens software</text></g><g class="message" data-participant-1="OmnAIView" data-participant-2="NaDI"><polygon fill="#181818" points="515.0029,204.9082,525.0029,208.9082,515.0029,212.9082,519.0029,208.9082" style="stroke:#181818;stroke-width:1;"/><line style="stroke:#181818;stroke-width:1;" x1="308.0044" x2="521.0029" y1="208.9082" y2="208.9082"/><text fill="#000000" font-family="sans-serif" font-size="13" lengthAdjust="spacing" textLength="63.229" x="315.0044" y="204.166">start NaDI</text></g><g class="message" data-participant-1="user" data-participant-2="OmnAIView"><polygon fill="#181818" points="296.0044,234.2188,306.0044,238.2188,296.0044,242.2188,300.0044,238.2188" style="stroke:#181818;stroke-width:1;"/><line style="stroke:#181818;stroke-width:1;" x1="22.6768" x2="302.0044" y1="238.2188" y2="238.2188"/><text fill="#000000" font-family="sans-serif" font-size="13" lengthAdjust="spacing" textLength="119.0884" x="29.6768" y="233.4766">start measurement</text></g><g class="message" data-participant-1="OmnAIView" data-participant-2="NaDI"><polygon fill="#181818" points="515.0029,263.5293,525.0029,267.5293,515.0029,271.5293,519.0029,267.5293" style="stroke:#181818;stroke-width:1;"/><line style="stroke:#181818;stroke-width:1;" x1="308.0044" x2="521.0029" y1="267.5293" y2="267.5293"/><text fill="#000000" font-family="sans-serif" font-size="13" lengthAdjust="spacing" textLength="112.9756" x="315.0044" y="262.7871">API request (start)</text></g><g class="message" data-participant-1="NaDI" data-participant-2="NaDI"><line style="stroke:#181818;stroke-width:1;" x1="527.0029" x2="569.0029" y1="296.8398" y2="296.8398"/><line style="stroke:#181818;stroke-width:1;" x1="569.0029" x2="569.0029" y1="296.8398" y2="309.8398"/><line style="stroke:#181818;stroke-width:1;" x1="528.0029" x2="569.0029" y1="309.8398" y2="309.8398"/><polygon fill="#181818" points="538.0029,305.8398,528.0029,309.8398,538.0029,313.8398,534.0029,309.8398" style="stroke:#181818;stroke-width:1;"/><text fill="#000000" font-family="sans-serif" font-size="13" lengthAdjust="spacing" textLength="105.5107" x="534.0029" y="292.0977">search for nodes</text></g><g class="message" data-participant-1="NaDI" data-participant-2="OmnAIView"><polygon fill="#181818" points="319.0044,335.1504,309.0044,339.1504,319.0044,343.1504,315.0044,339.1504" style="stroke:#181818;stroke-width:1;"/><line style="stroke:#181818;stroke-width:1;" x1="313.0044" x2="526.0029" y1="339.1504" y2="339.1504"/><text fill="#000000" font-family="sans-serif" font-size="13" lengthAdjust="spacing" textLength="131.4155" x="325.0044" y="334.4082">send available nodes</text></g><g class="message" data-participant-1="user" data-participant-2="OmnAIView"><polygon fill="#181818" points="296.0044,364.4609,306.0044,368.4609,296.0044,372.4609,300.0044,368.4609" style="stroke:#181818;stroke-width:1;"/><line style="stroke:#181818;stroke-width:1;" x1="22.6768" x2="302.0044" y1="368.4609" y2="368.4609"/><text fill="#000000" font-family="sans-serif" font-size="13" lengthAdjust="spacing" textLength="218.5562" x="29.6768" y="363.7188">selects OmnAIScope as datasource</text></g><g class="message" data-participant-1="OmnAIView" data-participant-2="NaDI"><polygon fill="#181818" points="515.0029,393.7715,525.0029,397.7715,515.0029,401.7715,519.0029,397.7715" style="stroke:#181818;stroke-width:1;"/><line style="stroke:#181818;stroke-width:1;" x1="308.0044" x2="521.0029" y1="397.7715" y2="397.7715"/><text fill="#000000" font-family="sans-serif" font-size="13" lengthAdjust="spacing" textLength="103.4858" x="315.0044" y="393.0293">open WebSocket</text></g><g class="message" data-participant-1="NaDI" data-participant-2="OmnAIView"><polygon fill="#181818" points="319.0044,423.082,309.0044,427.082,319.0044,431.082,315.0044,427.082" style="stroke:#181818;stroke-width:1;"/><line style="stroke:#181818;stroke-width:1;" x1="313.0044" x2="526.0029" y1="427.082" y2="427.082"/><text fill="#000000" font-family="sans-serif" font-size="13" lengthAdjust="spacing" textLength="116.9111" x="325.0044" y="422.3398">provide scope info</text></g><g class="message" data-participant-1="user" data-participant-2="OmnAIView"><polygon fill="#181818" points="296.0044,452.3926,306.0044,456.3926,296.0044,460.3926,300.0044,456.3926" style="stroke:#181818;stroke-width:1;"/><line style="stroke:#181818;stroke-width:1;" x1="22.6768" x2="302.0044" y1="456.3926" y2="456.3926"/><text fill="#000000" font-family="sans-serif" font-size="13" lengthAdjust="spacing" textLength="199.6084" x="29.6768" y="451.6504">confirms + starts measurement</text></g><g class="message" data-participant-1="OmnAIView" data-participant-2="NaDI"><polygon fill="#181818" points="515.0029,481.7031,525.0029,485.7031,515.0029,489.7031,519.0029,485.7031" style="stroke:#181818;stroke-width:1;"/><line style="stroke:#181818;stroke-width:1;" x1="308.0044" x2="521.0029" y1="485.7031" y2="485.7031"/><text fill="#000000" font-family="sans-serif" font-size="13" lengthAdjust="spacing" textLength="104.9585" x="315.0044" y="480.9609">send user config</text></g><g class="message" data-participant-1="NaDI" data-participant-2=".dll"><polygon fill="#181818" points="194.27,511.0137,184.27,515.0137,194.27,519.0137,190.27,515.0137" style="stroke:#181818;stroke-width:1;"/><line style="stroke:#181818;stroke-width:1;" x1="188.27" x2="526.0029" y1="515.0137" y2="515.0137"/><text fill="#000000" font-family="sans-serif" font-size="13" lengthAdjust="spacing" textLength="96.9795" x="200.27" y="510.2715">connect scopes</text></g><g class="message" data-participant-1="NaDI" data-participant-2="NaDI"><line style="stroke:#181818;stroke-width:1;" x1="527.0029" x2="569.0029" y1="544.3242" y2="544.3242"/><line style="stroke:#181818;stroke-width:1;" x1="569.0029" x2="569.0029" y1="544.3242" y2="557.3242"/><line style="stroke:#181818;stroke-width:1;" x1="528.0029" x2="569.0029" y1="557.3242" y2="557.3242"/><polygon fill="#181818" points="538.0029,553.3242,528.0029,557.3242,538.0029,561.3242,534.0029,557.3242" style="stroke:#181818;stroke-width:1;"/><text fill="#000000" font-family="sans-serif" font-size="13" lengthAdjust="spacing" textLength="80.1582" x="534.0029" y="539.582">process data</text></g><g class="message" data-participant-1="NaDI" data-participant-2="OmnAIView"><polygon fill="#181818" points="319.0044,582.6348,309.0044,586.6348,319.0044,590.6348,315.0044,586.6348" style="stroke:#181818;stroke-width:1;"/><line style="stroke:#181818;stroke-width:1;" x1="313.0044" x2="526.0029" y1="586.6348" y2="586.6348"/><text fill="#000000" font-family="sans-serif" font-size="13" lengthAdjust="spacing" textLength="129.8159" x="325.0044" y="581.8926">send processed data</text></g><g class="message" data-participant-1="OmnAIView" data-participant-2="user"><polygon fill="#181818" points="33.6768,611.9453,23.6768,615.9453,33.6768,619.9453,29.6768,615.9453" style="stroke:#181818;stroke-width:1;"/><line style="stroke:#181818;stroke-width:1;" x1="27.6768" x2="307.0044" y1="615.9453" y2="615.9453"/><text fill="#000000" font-family="sans-serif" font-size="13" lengthAdjust="spacing" textLength="142.9937" x="39.6768" y="611.2031">visualize data in graph</text></g><g class="message" data-participant-1="user" data-participant-2="OmnAIView"><polygon fill="#181818" points="296.0044,641.2559,306.0044,645.2559,296.0044,649.2559,300.0044,645.2559" style="stroke:#181818;stroke-width:1;"/><line style="stroke:#181818;stroke-width:1;" x1="22.6768" x2="302.0044" y1="645.2559" y2="645.2559"/><text fill="#000000" font-family="sans-serif" font-size="13" lengthAdjust="spacing" textLength="132.2915" x="29.6768" y="640.5137">request training data</text></g><g class="message" data-participant-1="OmnAIView" data-participant-2="NaDI"><polygon fill="#181818" points="515.0029,670.5664,525.0029,674.5664,515.0029,678.5664,519.0029,674.5664" style="stroke:#181818;stroke-width:1;"/><line style="stroke:#181818;stroke-width:1;" x1="308.0044" x2="521.0029" y1="674.5664" y2="674.5664"/><text fill="#000000" font-family="sans-serif" font-size="13" lengthAdjust="spacing" textLength="190.0806" x="315.0044" y="669.8242">request training data for node</text></g><g class="message" data-participant-1="NaDI" data-participant-2="StorageNode"><polygon fill="#181818" points="688.5801,699.877,698.5801,703.877,688.5801,707.877,692.5801,703.877" style="stroke:#181818;stroke-width:1;"/><line style="stroke:#181818;stroke-width:1;" x1="527.0029" x2="694.5801" y1="703.877" y2="703.877"/><text fill="#000000" font-family="sans-serif" font-size="13" lengthAdjust="spacing" textLength="132.1455" x="534.0029" y="699.1348">provide training data</text></g><g class="message" data-participant-1="StorageNode" data-participant-2="DataStorage"><polygon fill="#181818" points="915.8389,729.1875,925.8389,733.1875,915.8389,737.1875,919.8389,733.1875" style="stroke:#181818;stroke-width:1;"/><line style="stroke:#181818;stroke-width:1;" x1="700.5801" x2="921.8389" y1="733.1875" y2="733.1875"/><text fill="#000000" font-family="sans-serif" font-size="13" lengthAdjust="spacing" textLength="80.9136" x="707.5801" y="728.4453">transfer data</text></g><g class="message" data-participant-1="TrainingServer" data-participant-2="DataStorage"><polygon fill="#181818" points="938.8389,758.498,928.8389,762.498,938.8389,766.498,934.8389,762.498" style="stroke:#181818;stroke-width:1;"/><line style="stroke:#181818;stroke-width:1;" x1="932.8389" x2="1179.9204" y1="762.498" y2="762.498"/><text fill="#000000" font-family="sans-serif" font-size="13" lengthAdjust="spacing" textLength="129.7969" x="944.8389" y="757.7559">pull data (every 24h)</text></g><g class="message" data-participant-1="TrainingServer" data-participant-2="TrainingServer"><line style="stroke:#181818;stroke-width:1;" x1="1180.9204" x2="1222.9204" y1="791.8086" y2="791.8086"/><line style="stroke:#181818;stroke-width:1;" x1="1222.9204" x2="1222.9204" y1="791.8086" y2="804.8086"/><line style="stroke:#181818;stroke-width:1;" x1="1181.9204" x2="1222.9204" y1="804.8086" y2="804.8086"/><polygon fill="#181818" points="1191.9204,800.8086,1181.9204,804.8086,1191.9204,808.8086,1187.9204,804.8086" style="stroke:#181818;stroke-width:1;"/><text fill="#000000" font-family="sans-serif" font-size="13" lengthAdjust="spacing" textLength="72.6045" x="1187.9204" y="787.0664">train model</text></g><g class="message" data-participant-1="TrainingServer" data-participant-2="AnalysisStorage"><polygon fill="#181818" points="1059.9023,830.1191,1049.9023,834.1191,1059.9023,838.1191,1055.9023,834.1191" style="stroke:#181818;stroke-width:1;"/><line style="stroke:#181818;stroke-width:1;" x1="1053.9023" x2="1179.9204" y1="834.1191" y2="834.1191"/><text fill="#000000" font-family="sans-serif" font-size="13" lengthAdjust="spacing" textLength="108.0181" x="1065.9023" y="829.377">save trained data</text></g><g class="message" data-participant-1="TrainingServer" data-participant-2="OmnAIView"><polygon fill="#181818" points="319.0044,859.4297,309.0044,863.4297,319.0044,867.4297,315.0044,863.4297" style="stroke:#181818;stroke-width:1;"/><line style="stroke:#181818;stroke-width:1;" x1="313.0044" x2="1179.9204" y1="863.4297" y2="863.4297"/><text fill="#000000" font-family="sans-serif" font-size="13" lengthAdjust="spacing" textLength="142.0161" x="325.0044" y="858.6875">send success message</text></g><g class="message" data-participant-1="OmnAIView" data-participant-2="user"><polygon fill="#181818" points="33.6768,888.7402,23.6768,892.7402,33.6768,896.7402,29.6768,892.7402" style="stroke:#181818;stroke-width:1;"/><line style="stroke:#181818;stroke-width:1;" x1="27.6768" x2="307.0044" y1="892.7402" y2="892.7402"/><text fill="#000000" font-family="sans-serif" font-size="13" lengthAdjust="spacing" textLength="85.3188" x="39.6768" y="887.998">show success</text></g><!--SRC=[XLInZjim3Dtz5KIc1ErrA3fvA13qbYnt1LAqCoFJYLfPSYNPGVhrfIJ7iH8TRZ4WyZtgyL6qbruH2DFrg2_GM_ERX8TMcJDu0qVIPD4JU8jIIts41ZrM5GflB0oERDMZzL98fdluXlbvzQbHQfM7NZkztVsKT0RiUrYtrcXFkjci01tCoPppWiyxM1zG_67aHz2c8P1CioqAIim0oKcE9UAH8Zf2zYdmmkSSYHhLnKbtWswdo2Csz0zJwGXzvi1K-OsgI_IrS94ncyo-ZcGZuSSKsyTGLGNFuUbhi1fgdflMOLvEc9xctCtY6ZYkMO9f_HajLRSKuwAjDUjZ4Sd0KeMKxWZTOAaZxOj5jjztOEdlGCx3Eb8sLKmjxY6quWGjlvnWj9lpsMqyOS0HfSA3eWbOb4MAEv-Up3xq7-mAut5ciABSQd03Vj5XR_Wf-Q80Ne5HylkAbl8hQqtnUdQ-bRPpy24PvDvrA7OMIqNkSRuzRSdzDDszVInCa4ijlctTXA8cuJ8XyV8QHka6LF8VHGYt24UB_QdOvdMa-VwNsYiYvs7FWXTBk30xBx_4C6MnOKnXg7OjAutGV3qUqVsWL5Ao9WPSuFENqwR0kelKIH5qB44Lu7Th7Cp7SMhZQlqZws5ORX1nf1r_mj-WD2rtub_n1Ap-0m00]--></g></svg>